<svg width="24" height="14" viewBox="0 0 24 14" fill="none" xmlns="http://www.w3.org/2000/svg">
<g clip-path="url(#clip0_0_502)">
<path d="M21.1023 9.12505L12.7023 0.700049C12.6023 0.600049 12.494 0.529382 12.3773 0.488049C12.2607 0.446049 12.1357 0.425049 12.0023 0.425049C11.869 0.425049 11.744 0.446049 11.6273 0.488049C11.5107 0.529382 11.4023 0.600049 11.3023 0.700049L2.87734 9.12505C2.64401 9.35838 2.52734 9.65005 2.52734 10C2.52734 10.35 2.65234 10.65 2.90234 10.9C3.15234 11.15 3.44401 11.275 3.77734 11.275C4.11068 11.275 4.40234 11.15 4.65234 10.9L12.0023 3.55005L19.3523 10.9C19.5857 11.1334 19.873 11.25 20.2143 11.25C20.5563 11.25 20.8523 11.125 21.1023 10.875C21.3523 10.625 21.4773 10.3334 21.4773 10C21.4773 9.66672 21.3523 9.37505 21.1023 9.12505Z" fill="white"/>
</g>
<defs>
<clipPath id="clip0_0_502">
<rect width="14" height="24" fill="white" transform="matrix(1.19249e-08 1 1 -1.19249e-08 0 0)"/>
</clipPath>
</defs>
</svg>
