<svg width="65" height="35" viewBox="0 0 65 35" fill="none" xmlns="http://www.w3.org/2000/svg">
<path d="M15.5879 15.9503C17.1843 15.9503 18.4786 14.6818 18.4786 13.117C18.4786 11.5522 17.1843 10.2837 15.5879 10.2837C13.9914 10.2837 12.6971 11.5522 12.6971 13.117C12.6971 14.6818 13.9914 15.9503 15.5879 15.9503Z" stroke="white" stroke-width="0.731399" stroke-miterlimit="10"/>
<path d="M17.9001 7.33726C19.4966 7.33726 20.7908 6.06875 20.7908 4.50396C20.7908 2.93917 19.4966 1.67065 17.9001 1.67065C16.3036 1.67065 15.0094 2.93917 15.0094 4.50396C15.0094 6.06875 16.3036 7.33726 17.9001 7.33726Z" stroke="white" stroke-width="0.731399" stroke-miterlimit="10"/>
<path d="M18.0129 4.81563C18.036 4.81416 18.0586 4.80796 18.079 4.79744C18.0994 4.78693 18.1172 4.77235 18.1313 4.75468C18.4154 4.38027 18.0548 4.26882 18.0548 4.26882L12.4682 4.69547C12.4415 4.69876 12.4144 4.69578 12.3891 4.68679C12.3639 4.67779 12.3413 4.66305 12.3234 4.64385C12.3055 4.62464 12.2927 4.60154 12.2862 4.57655C12.2797 4.55156 12.2796 4.52544 12.2861 4.50043C12.3847 4.05574 12.5556 3.62856 12.7925 3.23441C12.8212 3.18429 12.8635 3.14246 12.9149 3.11333C12.9663 3.0842 13.025 3.06883 13.0848 3.06883C13.1446 3.06883 13.2033 3.0842 13.2547 3.11333C13.3061 3.14246 13.3484 3.18429 13.3772 3.23441L13.3753 3.67325C13.3734 3.70316 13.381 3.73291 13.3972 3.75858C13.4287 3.80456 13.4711 3.84275 13.5211 3.87003C13.5447 3.88179 13.571 3.88786 13.5976 3.88772C13.6243 3.88758 13.6505 3.88124 13.674 3.86923C13.6975 3.85722 13.7176 3.83992 13.7325 3.81882C13.7474 3.79772 13.7568 3.77346 13.7597 3.74813C13.8034 3.39985 13.8143 2.61969 13.0529 2.58834C12.0256 2.53958 11.7579 4.39769 11.6941 5.08207C11.691 5.11433 11.6951 5.14686 11.7061 5.17749C11.7172 5.20812 11.7349 5.23615 11.7582 5.25971C11.7815 5.28327 11.8097 5.30182 11.841 5.31413C11.8724 5.32644 11.9061 5.33222 11.94 5.33109H12.7779C12.801 5.33123 12.8237 5.33596 12.8448 5.34499C12.8658 5.35403 12.8847 5.36716 12.9001 5.38355C12.9155 5.39994 12.9272 5.41923 12.9344 5.44018C12.9416 5.46113 12.9441 5.48329 12.9418 5.50523L12.5502 9.5349C12.5471 9.57268 12.5297 9.60807 12.5011 9.63439C12.4726 9.6607 12.435 9.67611 12.3954 9.67769L11.2223 9.74387C11.1974 9.74503 11.1726 9.74081 11.1496 9.73151C11.1266 9.72221 11.1062 9.70809 11.0897 9.69018C11.0733 9.67227 11.0612 9.65104 11.0546 9.62807C11.0479 9.60511 11.0467 9.581 11.0511 9.55754C11.0917 9.36409 11.1161 9.16784 11.124 8.97067C11.124 8.77215 10.9418 8.69901 10.8471 8.64329C10.8342 8.63497 10.8193 8.62984 10.8038 8.62835C10.7882 8.62686 10.7726 8.62905 10.7582 8.63474C10.7437 8.64042 10.731 8.64942 10.7211 8.66094C10.7112 8.67246 10.7044 8.68613 10.7014 8.70075L10.2369 10.8236C10.2309 10.8484 10.2315 10.8743 10.2385 10.8989C10.2454 10.9235 10.2587 10.9461 10.277 10.9646C10.3316 11.0182 10.4048 11.0511 10.4828 11.0569C10.5197 11.06 10.5565 11.0512 10.5875 11.032C10.6186 11.0127 10.642 10.9841 10.654 10.9507L10.8453 10.4283C10.8553 10.3997 10.8736 10.3745 10.8982 10.3557C10.9227 10.3368 10.9524 10.3252 10.9837 10.322L12.379 10.1897C12.4046 10.1871 12.4305 10.1903 12.4545 10.1991C12.4786 10.2079 12.5001 10.222 12.5174 10.2402L15.5047 13.3747C15.5201 13.3911 15.5389 13.4042 15.5599 13.4132C15.5809 13.4221 15.6037 13.4269 15.6267 13.427H15.7396C15.7743 13.4272 15.8082 13.4168 15.8364 13.3974C15.8645 13.378 15.8855 13.3506 15.8963 13.319L17.3134 9.30329C17.3224 9.27775 17.3245 9.25043 17.3194 9.22392C17.3143 9.19741 17.3022 9.17258 17.2843 9.15178L14.0056 5.3903C13.9906 5.37405 13.9794 5.35492 13.9728 5.33419C13.9662 5.31346 13.9643 5.29162 13.9673 5.27014V5.23357C13.9719 5.19742 13.9895 5.16392 14.0171 5.13881C14.0446 5.11371 14.0805 5.09857 14.1185 5.096L18.0129 4.81563ZM16.5393 10.0103L15.6285 12.3978C15.6186 12.4231 15.6021 12.4456 15.5805 12.4631C15.559 12.4806 15.5331 12.4926 15.5053 12.4978C15.4776 12.5031 15.4489 12.5014 15.422 12.4931C15.3951 12.4847 15.3709 12.4699 15.3517 12.45L13.3353 10.3603C13.3152 10.3392 13.3015 10.3133 13.2956 10.2853C13.2896 10.2573 13.2917 10.2283 13.3016 10.2014C13.3115 10.1744 13.3288 10.1506 13.3517 10.1322C13.3747 10.1139 13.4023 10.1019 13.4318 10.0974L16.3462 9.64809C16.369 9.64592 16.392 9.64829 16.4138 9.65506C16.4356 9.66183 16.4557 9.67284 16.4728 9.68741C16.4899 9.70197 16.5037 9.71977 16.5133 9.73968C16.5228 9.75959 16.5279 9.78117 16.5283 9.80308V9.95458C16.5359 9.97226 16.5396 9.99122 16.5393 10.0103ZM16.2551 9.05426L13.277 9.50355C13.2524 9.50602 13.2276 9.5032 13.2043 9.49532C13.1811 9.48744 13.1599 9.47469 13.1425 9.458C13.125 9.44131 13.1117 9.42111 13.1034 9.39886C13.0952 9.37661 13.0922 9.35288 13.0948 9.32941L13.4591 6.0207C13.465 5.9929 13.4785 5.9671 13.4983 5.946C13.5181 5.9249 13.5435 5.90926 13.5717 5.90072C13.6 5.89218 13.6302 5.89106 13.6591 5.89746C13.688 5.90386 13.7145 5.91755 13.736 5.93711L16.3535 8.79479C16.3726 8.8161 16.3855 8.84188 16.3907 8.8695C16.396 8.89712 16.3935 8.92558 16.3835 8.95198C16.3735 8.97837 16.3563 9.00175 16.3338 9.01972C16.3112 9.0377 16.2841 9.04962 16.2551 9.05426Z" fill="white" stroke="white" stroke-width="0.2438" stroke-miterlimit="10"/>
<path d="M49.0342 29.4979L50.2892 26.3076L47.4422 24.3189H51.0834L52.2473 21.1582L53.1963 24.3764H56.6845L53.7464 26.2501L54.6353 29.4979L52.0633 27.6537" fill="#F57520"/>
<path d="M34.0201 34.8307H37.6746L47.8408 1.1626H44.1863L34.0201 34.8307Z" fill="white"/>
<path fill-rule="evenodd" clip-rule="evenodd" d="M39.4022 34.8306L40.5317 31.4638H53.3557L53.5791 31.4639C53.9137 31.4643 54.2324 31.4647 54.539 31.4574C56.251 31.3693 57.8151 30.4747 59.0226 29.2987C60.274 28.08 60.9753 26.4398 60.9755 24.7311C60.9756 23.0111 60.2655 21.3608 59.0001 20.1396C58.3545 19.5166 57.599 19.2231 56.7753 19.0833C56.2443 19.0155 55.7089 18.9752 55.186 18.9585C54.9554 18.954 54.7218 18.9525 54.4862 18.951C54.4102 18.9505 54.3341 18.95 54.2577 18.9494H43.9869L44.9836 15.9002H50.0334C50.9344 15.9002 51.4678 15.9093 51.9318 15.9171H51.9318C52.6996 15.9301 53.2773 15.9398 55.0168 15.9002C55.9313 15.8794 56.533 15.8518 57.0676 15.7137C57.9322 15.4043 58.7246 14.9159 59.3837 14.2737C60.5558 13.1317 61.2127 11.5946 61.213 9.99335C61.213 8.38154 60.5691 6.62655 59.3837 5.48218C58.1986 4.33806 56.5972 4.16137 54.9144 4.14817H48.6381L49.369 1.16251H53.8873C54.2485 1.16251 54.5381 1.15925 54.7893 1.15642C55.6472 1.14677 56.0575 1.14215 57.3424 1.28956C57.5205 1.30999 57.6836 1.34143 57.8348 1.38267C59.3477 1.63611 60.7408 2.16638 61.8723 3.25881C63.7063 5.02936 64.7063 7.49967 64.7182 9.99335C64.7068 12.4712 63.6857 14.8469 61.8723 16.6146C61.6405 16.8406 61.3971 17.0377 61.1433 17.2098C61.3144 17.3349 61.481 17.4747 61.6428 17.6309C63.6007 19.5202 64.7049 22.07 64.7176 24.7311C64.7054 27.3752 63.6153 29.9104 61.6795 31.7967C60.4371 33.0073 58.9091 33.8631 57.2437 34.3365C56.3081 34.65 55.2395 34.8306 54.0201 34.8306H39.4022Z" fill="white"/>
<path d="M0.664185 1.16235H4.25224L12.8237 29.5579L11.4948 34.8304L0.664185 1.16235Z" fill="white"/>
<path d="M12.8909 34.8304H16.4125L23.8544 7.26073L32.3594 34.8304L34.0869 29.4308L25.1833 1.16235H21.861L12.8909 34.8304Z" fill="white"/>
</svg>
